<svg xmlns="http://www.w3.org/2000/svg" xmlns:xlink="http://www.w3.org/1999/xlink" version="1.1" height="20" xml:space="preserve" viewBox="0 0 126 139"><path xmlns="http://www.w3.org/2000/svg" d="M125.9,62.4L125.9,62.4c-0.2-13-1.2-24.7-2.9-27.6c-1.4-2.4-8.5-7.5-17.3-13.1L82.1,8C73.2,3.3,65.7,0,63,0    c-3.3,0-14,5-25.4,11.4C28.9,16.2,19.8,21.7,13,26.3C7.8,29.9,3.9,33,2.9,34.8s-1.8,6.8-2.2,13.5l0,0c-0.6,8.4-0.8,19.3-0.6,29.3    c0.3,12.7,1.2,23.9,2.8,26.7C6.9,111.1,55.1,139,63,139c3.3,0,13.5-4.8,24.6-10.9c8.8-4.8,18.1-10.5,25.1-15.2l0,0    c5.4-3.7,9.3-6.8,10.4-8.6s1.8-6.7,2.2-13.2l0,0C125.9,82.9,126.1,72.2,125.9,62.4z M91.3,98.8l-9.7,8.8c-0.3,0.4-0.7,0.6-1.2,0.6    c-0.5,0-1-0.2-1.3-0.6L70,98.8c-0.7-0.4-0.9-1.3-0.5-2c0.3-0.5,0.8-0.7,1.3-0.7h2.6V76.4H52.7v21.7c0,0.8-0.7,1.5-1.5,1.5H39.6    c-0.8,0-1.5-0.7-1.5-1.5c0,0,0,0,0,0V42.9h-2.7c-0.8,0-1.5-0.7-1.5-1.5c0-0.5,0.3-1,0.7-1.3l9.7-8.8c0.3-0.4,0.7-0.6,1.2-0.6    c0.5,0,1,0.2,1.3,0.6l9.1,8.8c0.7,0.4,0.9,1.3,0.5,2c-0.3,0.5-0.8,0.7-1.3,0.7h-2.6v18.9h20.7v-21c0-0.8,0.7-1.5,1.5-1.5h11.6    c0.8,0,1.5,0.7,1.5,1.5c0,0,0,0,0,0v55.2h2.7c0.8,0,1.5,0.7,1.5,1.5C92,98.1,91.8,98.6,91.3,98.8z" fill="#959DA5"/></svg>