<svg height="20" viewBox="0 0 20 12" fill="none" xmlns="http://www.w3.org/2000/svg"><path fill-rule="evenodd" clip-rule="evenodd" d="M19.5294 0.826078C19.6776 0.360085 19.5294 0.0211812 18.8727 0.0211812H16.691C16.1403 0.0211812 15.8861 0.317723 15.7379 0.635446C15.7379 0.635446 14.6153 3.34668 13.0478 5.10474C12.5395 5.6131 12.3065 5.78256 12.0311 5.78256C11.8828 5.78256 11.6922 5.6131 11.6922 5.14711V0.804897C11.6922 0.254177 11.5227 0 11.0568 0H7.62535C7.28644 0 7.07463 0.254177 7.07463 0.508355C7.07463 1.03789 7.85834 1.16498 7.94307 2.64769V5.86728C7.94307 6.56627 7.81598 6.69336 7.54062 6.69336C6.79927 6.69336 4.99884 3.96094 3.91858 0.847261C3.70677 0.232997 3.49495 0 2.94423 0H0.741353C0.105908 0 0 0.29654 0 0.614263C0 1.18616 0.741354 4.06685 3.45259 7.87952C5.25302 10.4849 7.81598 11.8828 10.1248 11.8828C11.5227 11.8828 11.6922 11.5651 11.6922 11.0356V9.06569C11.6922 8.43025 11.8193 8.32434 12.2641 8.32434C12.5818 8.32434 13.1537 8.49379 14.4458 9.7435C15.9285 11.2262 16.1827 11.904 17.0088 11.904H19.1905C19.8259 11.904 20.1224 11.5863 19.953 10.972C19.7624 10.3578 19.0422 9.46814 18.1102 8.40906C17.6018 7.81598 16.8393 7.15935 16.6063 6.84163C16.2886 6.418 16.3733 6.24855 16.6063 5.86728C16.5851 5.86728 19.254 2.09697 19.5294 0.826078Z" fill="#959DA5"/></svg>